{
    "accessors": {
        "accessor_buffer_Cube_0": {
            "bufferView": "bufferView_buffer_Cube_0",
            "byteOffset": 0,
            "byteStride": 24,
            "componentType": 5126,
            "count": 24,
            "max": [
                1.0000004768371582,
                1.0000003576278687,
                1.0
            ],
            "min": [
                -1.0000003576278687,
                -1.0000005960464478,
                -1.0
            ],
            "type": "VEC3"
        },
        "accessor_buffer_Cube_1": {
            "bufferView": "bufferView_buffer_Cube_0",
            "byteOffset": 12,
            "byteStride": 24,
            "componentType": 5126,
            "count": 24,
            "max": [
                1.0,
                1.0,
                1.0
            ],
            "min": [
                -1.0,
                -1.0,
                -1.0
            ],
            "type": "VEC3"
        },
        "accessor_buffer_Cube_2": {
            "bufferView": "bufferView_buffer_Cube_1",
            "byteOffset": 0,
            "byteStride": 2,
            "componentType": 5123,
            "count": 36,
            "max": [
                23
            ],
            "min": [
                0
            ],
            "type": "SCALAR"
        },
        "accessor_buffer_Plane_0": {
            "bufferView": "bufferView_buffer_Plane_0",
            "byteOffset": 0,
            "byteStride": 24,
            "componentType": 5126,
            "count": 4,
            "max": [
                1.0,
                1.0,
                0
            ],
            "min": [
                -1.0,
                -1.0,
                0.0
            ],
            "type": "VEC3"
        },
        "accessor_buffer_Plane_1": {
            "bufferView": "bufferView_buffer_Plane_0",
            "byteOffset": 12,
            "byteStride": 24,
            "componentType": 5126,
            "count": 4,
            "max": [
                0,
                0,
                1.0
            ],
            "min": [
                0.0,
                0.0,
                1.0
            ],
            "type": "VEC3"
        },
        "accessor_buffer_Plane_2": {
            "bufferView": "bufferView_buffer_Plane_1",
            "byteOffset": 0,
            "byteStride": 2,
            "componentType": 5123,
            "count": 6,
            "max": [
                3
            ],
            "min": [
                0
            ],
            "type": "SCALAR"
        },
        "accessor_buffer_SuzanneAction_time_0": {
            "bufferView": "bufferView_buffer_SuzanneAction_time_0",
            "byteOffset": 0,
            "byteStride": 4,
            "componentType": 5126,
            "count": 101,
            "max": [
                4.166666666666662
            ],
            "min": [
                0
            ],
            "type": "SCALAR"
        },
        "accessor_buffer_Suzanne_0": {
            "bufferView": "bufferView_buffer_Suzanne_0",
            "byteOffset": 0,
            "byteStride": 32,
            "componentType": 5126,
            "count": 1966,
            "max": [
                1.3671875,
                0.8515625,
                0.984375
            ],
            "min": [
                -1.3671875,
                -0.8515625,
                -0.984375
            ],
            "type": "VEC3"
        },
        "accessor_buffer_Suzanne_1": {
            "bufferView": "bufferView_buffer_Suzanne_0",
            "byteOffset": 12,
            "byteStride": 32,
            "componentType": 5126,
            "count": 1966,
            "max": [
                1.0,
                0.9864740371704102,
                0.9970182180404663
            ],
            "min": [
                -1.0,
                -1.0,
                -0.992402970790863
            ],
            "type": "VEC3"
        },
        "accessor_buffer_Suzanne_2": {
            "bufferView": "bufferView_buffer_Suzanne_0",
            "byteOffset": 24,
            "byteStride": 32,
            "componentType": 5126,
            "count": 1966,
            "max": [
                0.9240240454673767,
                0.9993684299406596
            ],
            "min": [
                0.0006315700593404472,
                0.0006315112113952637
            ],
            "type": "VEC2"
        },
        "accessor_buffer_Suzanne_3": {
            "bufferView": "bufferView_buffer_Suzanne_1",
            "byteOffset": 0,
            "byteStride": 2,
            "componentType": 5123,
            "count": 2904,
            "max": [
                1965
            ],
            "min": [
                0
            ],
            "type": "SCALAR"
        },
        "accessor_buffer_Suzanne_SuzanneAction_0": {
            "bufferView": "bufferView_buffer_Suzanne_SuzanneAction_0",
            "byteOffset": 0,
            "byteStride": 12,
            "componentType": 5126,
            "count": 101,
            "max": [
                4.441052436828613,
                0.12462076544761658,
                0
            ],
            "min": [
                4.441052436828613,
                0.12462076544761658,
                -0.4030945301055908
            ],
            "type": "VEC3"
        },
        "accessor_buffer_Suzanne_SuzanneAction_1": {
            "bufferView": "bufferView_buffer_Suzanne_SuzanneAction_1",
            "byteOffset": 0,
            "byteStride": 16,
            "componentType": 5126,
            "count": 101,
            "max": [
                0,
                0,
                0.33539000153541565,
                0.07555969804525375
            ],
            "min": [
                -0.06534121930599213,
                -0.9367682933807373,
                0.33539000153541565,
                0.07555969804525375
            ],
            "type": "VEC4"
        },
        "accessor_buffer_Suzanne_SuzanneAction_2": {
            "bufferView": "bufferView_buffer_Suzanne_SuzanneAction_2",
            "byteOffset": 0,
            "byteStride": 12,
            "componentType": 5126,
            "count": 101,
            "max": [
                1.0,
                1.0,
                1.0
            ],
            "min": [
                1.0,
                1.0,
                1.0
            ],
            "type": "VEC3"
        }
    },
    "animations": {
        "Suzanne|SuzanneAction": {
            "channels": [
                {
                    "sampler": "SuzanneAction_node_Suzanne_translation_sampler",
                    "target": {
                        "id": "node_Suzanne",
                        "path": "translation"
                    }
                },
                {
                    "sampler": "SuzanneAction_node_Suzanne_rotation_sampler",
                    "target": {
                        "id": "node_Suzanne",
                        "path": "rotation"
                    }
                },
                {
                    "sampler": "SuzanneAction_node_Suzanne_scale_sampler",
                    "target": {
                        "id": "node_Suzanne",
                        "path": "scale"
                    }
                }
            ],
            "name": "SuzanneAction",
            "parameters": {
                "SuzanneAction_node_Suzanne_rotation_parameter": "accessor_buffer_Suzanne_SuzanneAction_1",
                "SuzanneAction_node_Suzanne_scale_parameter": "accessor_buffer_Suzanne_SuzanneAction_2",
                "SuzanneAction_node_Suzanne_translation_parameter": "accessor_buffer_Suzanne_SuzanneAction_0",
                "SuzanneAction_time_parameter": "accessor_buffer_SuzanneAction_time_0"
            },
            "samplers": {
                "SuzanneAction_node_Suzanne_rotation_sampler": {
                    "input": "SuzanneAction_time_parameter",
                    "interpolation": "LINEAR",
                    "output": "SuzanneAction_node_Suzanne_rotation_parameter"
                },
                "SuzanneAction_node_Suzanne_scale_sampler": {
                    "input": "SuzanneAction_time_parameter",
                    "interpolation": "LINEAR",
                    "output": "SuzanneAction_node_Suzanne_scale_parameter"
                },
                "SuzanneAction_node_Suzanne_translation_sampler": {
                    "input": "SuzanneAction_time_parameter",
                    "interpolation": "LINEAR",
                    "output": "SuzanneAction_node_Suzanne_translation_parameter"
                }
            }
        }
    },
    "asset": {
        "profile": {
            "api": "WebGL",
            "version": "1.0.3"
        },
        "version": "1.0"
    },
    "bufferViews": {
        "bufferView_buffer_Cube_0": {
            "buffer": "buffer_combined",
            "byteLength": 576,
            "byteOffset": 4444,
            "target": 34962
        },
        "bufferView_buffer_Cube_1": {
            "buffer": "buffer_combined",
            "byteLength": 72,
            "byteOffset": 5020,
            "target": 34963
        },
        "bufferView_buffer_Plane_0": {
            "buffer": "buffer_combined",
            "byteLength": 96,
            "byteOffset": 5092,
            "target": 34962
        },
        "bufferView_buffer_Plane_1": {
            "buffer": "buffer_combined",
            "byteLength": 12,
            "byteOffset": 5188,
            "target": 34963
        },
        "bufferView_buffer_SuzanneAction_time_0": {
            "buffer": "buffer_combined",
            "byteLength": 404,
            "byteOffset": 0
        },
        "bufferView_buffer_Suzanne_0": {
            "buffer": "buffer_combined",
            "byteLength": 62912,
            "byteOffset": 5200,
            "target": 34962
        },
        "bufferView_buffer_Suzanne_1": {
            "buffer": "buffer_combined",
            "byteLength": 5808,
            "byteOffset": 68112,
            "target": 34963
        },
        "bufferView_buffer_Suzanne_SuzanneAction_0": {
            "buffer": "buffer_combined",
            "byteLength": 1212,
            "byteOffset": 404
        },
        "bufferView_buffer_Suzanne_SuzanneAction_1": {
            "buffer": "buffer_combined",
            "byteLength": 1616,
            "byteOffset": 1616
        },
        "bufferView_buffer_Suzanne_SuzanneAction_2": {
            "buffer": "buffer_combined",
            "byteLength": 1212,
            "byteOffset": 3232
        }
    },
    "buffers": {
        "buffer_combined": {
            "byteLength": 73920,
            "type": "arraybuffer",
            "uri": "buffer_combined.bin"
        }
    },
    "cameras": {
        "camera_Camera": {
            "name": "Camera",
            "perspective": {
                "aspectRatio": 1.703595982340029,
                "yfov": 0.5033799409866333,
                "zfar": 100.0,
                "znear": 0.10000000149011612
            },
            "type": "perspective"
        }
    },
    "extensions": {
        "KHR_materials_common": {
            "lights": {
                "light_Lamp": {
                    "name": "Lamp",
                    "point": {
                        "color": [
                            1.0,
                            1.0,
                            1.0
                        ],
                        "constantAttenuation": 1,
                        "linearAttenuation": 0,
                        "quadraticAttenuation": 0.03333335240683057
                    },
                    "type": "point"
                }
            }
        }
    },
    "extensionsUsed": [
        "KHR_materials_common"
    ],
    "images": {
        "image_tex.png": {
            "uri": "data:image/png;base64,"
        }
    },
    "materials": {
        "material_Material": {
            "extensions": {
                "KHR_materials_common": {
                    "technique": "PHONG",
                    "values": {
                        "ambient": [
                            1.0,
                            1.0,
                            1.0,
                            1.0
                        ],
                        "diffuse": [
                            0.64000004529953,
                            0.015214730985462666,
                            0.2723420262336731,
                            1.0
                        ],
                        "doubleSided": false,
                        "emission": [
                            0.0,
                            0.0,
                            0.0,
                            1.0
                        ],
                        "shininess": 50,
                        "specular": [
                            0.5,
                            0.5,
                            0.5,
                            1.0
                        ],
                        "transparency": 1.0,
                        "transparent": false
                    }
                }
            },
            "name": "Material"
        },
        "material_Material.001": {
            "extensions": {
                "KHR_materials_common": {
                    "technique": "PHONG",
                    "values": {
                        "ambient": [
                            1.0,
                            1.0,
                            1.0,
                            1.0
                        ],
                        "diffuse": "texture_Texture",
                        "doubleSided": false,
                        "emission": [
                            0.0,
                            0.0,
                            0.0,
                            1.0
                        ],
                        "shininess": 50,
                        "specular": [
                            0.5,
                            0.5,
                            0.5,
                            1.0
                        ],
                        "transparency": 1.0,
                        "transparent": false
                    }
                }
            },
            "name": "Material.001"
        },
        "material_Material.002": {
            "extensions": {
                "KHR_materials_common": {
                    "technique": "PHONG",
                    "values": {
                        "ambient": [
                            1.0,
                            1.0,
                            1.0,
                            1.0
                        ],
                        "diffuse": [
                            0.0,
                            0.64000004529953,
                            0.007179145701229572,
                            1.0
                        ],
                        "doubleSided": false,
                        "emission": [
                            0.0,
                            0.0,
                            0.0,
                            1.0
                        ],
                        "shininess": 50,
                        "specular": [
                            0.5,
                            0.5,
                            0.5,
                            1.0
                        ],
                        "transparency": 1.0,
                        "transparent": false
                    }
                }
            },
            "name": "Material.002"
        }
    },
    "meshes": {
        "mesh_Cube": {
            "name": "Cube",
            "primitives": [
                {
                    "attributes": {
                        "NORMAL": "accessor_buffer_Cube_1",
                        "POSITION": "accessor_buffer_Cube_0"
                    },
                    "indices": "accessor_buffer_Cube_2",
                    "material": "material_Material",
                    "mode": 4
                }
            ]
        },
        "mesh_Plane": {
            "name": "Plane",
            "primitives": [
                {
                    "attributes": {
                        "NORMAL": "accessor_buffer_Plane_1",
                        "POSITION": "accessor_buffer_Plane_0"
                    },
                    "indices": "accessor_buffer_Plane_2",
                    "material": "material_Material.002",
                    "mode": 4
                }
            ]
        },
        "mesh_Suzanne": {
            "name": "Suzanne",
            "primitives": [
                {
                    "attributes": {
                        "NORMAL": "accessor_buffer_Suzanne_1",
                        "POSITION": "accessor_buffer_Suzanne_0",
                        "TEXCOORD_0": "accessor_buffer_Suzanne_2"
                    },
                    "indices": "accessor_buffer_Suzanne_3",
                    "material": "material_Material.001",
                    "mode": 4
                }
            ]
        }
    },
    "nodes": {
        "node_Camera": {
            "camera": "camera_Camera",
            "children": [],
            "matrix": [
                0.6859206557273865,
                0.7276763319969177,
                0.0,
                0.0,
                -0.32401347160339355,
                0.305420845746994,
                0.8953956365585327,
                0.0,
                0.6515582203865051,
                -0.6141703724861145,
                0.44527140259742737,
                0.0,
                7.481131553649902,
                -6.5076398849487305,
                5.34366512298584,
                1.0
            ],
            "name": "Camera"
        },
        "node_Cube": {
            "children": [],
            "matrix": [
                1.0,
                0.0,
                0.0,
                0.0,
                0.0,
                1.0,
                0.0,
                0.0,
                0.0,
                0.0,
                1.0,
                0.0,
                0.0,
                0.0,
                0.0,
                1.0
            ],
            "meshes": [
                "mesh_Cube"
            ],
            "name": "Cube"
        },
        "node_Lamp": {
            "children": [],
            "extensions": {
                "KHR_materials_common": {
                    "light": "light_Lamp"
                }
            },
            "matrix": [
                -0.29086464643478394,
                0.9551711678504944,
                -0.05518905818462372,
                0.0,
                -0.7711008191108704,
                -0.1998833566904068,
                0.6045247316360474,
                0.0,
                0.5663931965827942,
                0.21839119493961334,
                0.7946722507476807,
                0.0,
                4.076245307922363,
                1.0054539442062378,
                5.903861999511719,
                1.0
            ],
            "name": "Lamp"
        },
        "node_Plane": {
            "children": [],
            "matrix": [
                6.950533390045166,
                0.0,
                0.0,
                0.0,
                0.0,
                6.950533390045166,
                0.0,
                0.0,
                0.0,
                0.0,
                6.950533390045166,
                0.0,
                -0.39901208877563477,
                0.48394617438316345,
                -1.309236764907837,
                1.0
            ],
            "meshes": [
                "mesh_Plane"
            ],
            "name": "Plane"
        },
        "node_Suzanne": {
            "children": [],
            "matrix": [
                1.0,
                0.0,
                0.0,
                0.0,
                0.0,
                1.0,
                0.0,
                0.0,
                0.0,
                0.0,
                1.0,
                0.0,
                -5.054670810699463,
                0.12462076544761658,
                -0.1378474235534668,
                1.0
            ],
            "meshes": [
                "mesh_Suzanne"
            ],
            "name": "Suzanne"
        },
        "node_scene_Scene_root": {
            "children": [
                "node_Plane",
                "node_Suzanne",
                "node_Cube",
                "node_Lamp",
                "node_Camera"
            ],
            "matrix": [
                -1.0,
                0.0,
                0.0,
                0.0,
                0.0,
                0.0,
                1.0,
                0.0,
                0.0,
                1.0,
                0.0,
                0.0,
                0.0,
                0.0,
                0.0,
                1.0
            ],
            "name": "node_scene_Scene_root"
        }
    },
    "samplers": {
        "sampler_default": {}
    },
    "scene": "scene_Scene",
    "scenes": {
        "scene_Scene": {
            "extras": {
                "active_camera": "camera_Camera",
                "background_color": [
                    0.05087608844041824,
                    0.05087608844041824,
                    0.05087608844041824
                ],
                "frames_per_second": 24
            },
            "name": "Scene",
            "nodes": [
                "node_scene_Scene_root"
            ]
        }
    },
    "textures": {
        "texture_Texture": {
            "format": 35906,
            "internalFormat": 35906,
            "sampler": "sampler_default",
            "source": "image_tex.png"
        }
    }
}
